<?xml version="1.0" encoding="utf-8"?>
<!-- Generated by IcoMoon.io -->
<!DOCTYPE svg PUBLIC "-//W3C//DTD SVG 1.1//EN" "http://www.w3.org/Graphics/SVG/1.1/DTD/svg11.dtd">
<svg version="1.1" xmlns="http://www.w3.org/2000/svg" xmlns:xlink="http://www.w3.org/1999/xlink" width="18" height="16" viewBox="0 0 18 16">
<path fill="#000000" d="M3.5 2h-3c-0.275 0-0.5 0.225-0.5 0.5v11c0 0.275 0.225 0.5 0.5 0.5h3c0.275 0 0.5-0.225 0.5-0.5v-11c0-0.275-0.225-0.5-0.5-0.5zM3 5h-2v-1h2v1z"></path>
<path fill="#000000" d="M8.5 2h-3c-0.275 0-0.5 0.225-0.5 0.5v11c0 0.275 0.225 0.5 0.5 0.5h3c0.275 0 0.5-0.225 0.5-0.5v-11c0-0.275-0.225-0.5-0.5-0.5zM8 5h-2v-1h2v1z"></path>
<path fill="#000000" d="M11.954 2.773l-2.679 1.35c-0.246 0.124-0.345 0.426-0.222 0.671l4.5 8.93c0.124 0.246 0.426 0.345 0.671 0.222l2.679-1.35c0.246-0.124 0.345-0.426 0.222-0.671l-4.5-8.93c-0.124-0.246-0.426-0.345-0.671-0.222z"></path>
<path fill="#000000" d="M14.5 13.5c0 0.276-0.224 0.5-0.5 0.5s-0.5-0.224-0.5-0.5c0-0.276 0.224-0.5 0.5-0.5s0.5 0.224 0.5 0.5z"></path>
</svg>
